<svg xmlns="http://www.w3.org/2000/svg" xmlns:xlink="http://www.w3.org/1999/xlink" viewBox="0,0,256,256" width="14px" height="16px" fill-rule="nonzero"><g transform=""><g fill="#ffffff" fill-rule="nonzero" stroke="none" stroke-width="1" stroke-linecap="butt" stroke-linejoin="miter" stroke-miterlimit="10" stroke-dasharray="" stroke-dashoffset="0" font-family="none" font-weight="none" font-size="none" text-anchor="none" style="mix-blend-mode: normal"><g transform="scale(5.12,5.12)"><path d="M25,11c-5.83203,0 -11.15625,1.51172 -15.21094,4h-7.78906c0,0 1.75391,2.15234 2.57813,4.57813c-1.60937,2.04297 -2.57812,4.61719 -2.57812,7.42188c0,6.62891 5.37109,12 12,12c3.49609,0 6.63672,-1.50781 8.82813,-3.89453l2.17188,2.89453l2.17188,-2.89453c2.19141,2.38672 5.33203,3.89453 8.82813,3.89453c6.62891,0 12,-5.37109 12,-12c0,-2.80469 -0.96875,-5.37891 -2.57812,-7.42187c0.82422,-2.42578 2.57813,-4.57812 2.57813,-4.57812h-7.79687c-4.05469,-2.48828 -9.375,-4 -15.20312,-4zM14,18c4.97266,0 9,4.02734 9,9c0,4.97266 -4.02734,9 -9,9c-4.97266,0 -9,-4.02734 -9,-9c0,-4.97266 4.02734,-9 9,-9zM36,18c4.97266,0 9,4.02734 9,9c0,4.97266 -4.02734,9 -9,9c-4.97266,0 -9,-4.02734 -9,-9c0,-4.97266 4.02734,-9 9,-9zM14,21c-3.3125,0 -6,2.6875 -6,6c0,3.3125 2.6875,6 6,6c3.3125,0 6,-2.6875 6,-6c0,-3.3125 -2.6875,-6 -6,-6zM36,21c-3.3125,0 -6,2.6875 -6,6c0,3.3125 2.6875,6 6,6c3.3125,0 6,-2.6875 6,-6c0,-3.3125 -2.6875,-6 -6,-6zM14,23c2.21094,0 4,1.78906 4,4c0,2.21094 -1.78906,4 -4,4c-2.21094,0 -4,-1.78906 -4,-4c0,-2.21094 1.78906,-4 4,-4zM36,23c2.21094,0 4,1.78906 4,4c0,2.21094 -1.78906,4 -4,4c-2.21094,0 -4,-1.78906 -4,-4c0,-2.21094 1.78906,-4 4,-4zM14,25c-1.10547,0 -2,0.89453 -2,2c0,1.10547 0.89453,2 2,2c1.10547,0 2,-0.89453 2,-2c0,-1.10547 -0.89453,-2 -2,-2zM36,25c-1.10547,0 -2,0.89453 -2,2c0,1.10547 0.89453,2 2,2c1.10547,0 2,-0.89453 2,-2c0,-1.10547 -0.89453,-2 -2,-2z"></path></g></g></g></svg>